<svg width="18" height="18" viewBox="0 0 18 18" fill="none" xmlns="http://www.w3.org/2000/svg">
<path d="M10.3125 4C10.3125 4 7.19955 7.36286 7.06241 7.5C7.06241 7.5 8.53906 8.34317 8.53906 8.53711L6.17593 11.5208C6.17593 11.7147 9.50261 9.36286 9.63975 9.5L10.1405 10.9845L10.8317 9.5C10.8317 9.5 14.125 11.7587 14.125 11.5648L11.625 8.5L13.1405 7.48449C13.0034 7.34736 10.3125 4 10.3125 4ZM10.9852 11.9596C10.9692 11.913 10.9471 11.8688 10.9194 11.828L10.8317 11.7183C10.7289 11.6168 10.5983 11.5481 10.4564 11.5208C10.3146 11.4935 10.1678 11.5088 10.0346 11.5648C9.94601 11.6018 9.86439 11.6537 9.79331 11.7183C9.72554 11.7866 9.67192 11.8677 9.63553 11.9568C9.59914 12.0459 9.58069 12.1413 9.58125 12.2375C9.58241 12.3331 9.60228 12.4275 9.63975 12.5154C9.67259 12.6061 9.72499 12.6885 9.79323 12.7568C9.86147 12.825 9.94388 12.8774 10.0346 12.9103C10.1222 12.9489 10.2168 12.9689 10.3125 12.9689C10.4082 12.9689 10.5028 12.9489 10.5904 12.9103C10.6811 12.8774 10.7635 12.825 10.8318 12.7568C10.9 12.6885 10.9524 12.6061 10.9852 12.5154C11.0227 12.4275 11.0426 12.3331 11.0438 12.2375C11.0473 12.1888 11.0473 12.1399 11.0438 12.0913C11.0312 12.0446 11.0114 12.0002 10.9852 11.9596ZM10.3125 2C8.86622 2 7.45243 2.42887 6.24989 3.23238C5.04736 4.03589 4.1101 5.17794 3.55663 6.51413C3.00317 7.85031 2.85835 9.32061 3.14051 10.7391C3.42266 12.1576 4.11911 13.4605 5.14178 14.4832C6.16445 15.5059 7.46742 16.2023 8.8859 16.4845C10.3044 16.7666 11.7747 16.6218 13.1109 16.0684C14.4471 15.5149 15.5891 14.5776 16.3926 13.3751C17.1961 12.1726 17.625 10.7588 17.625 9.3125C17.625 8.35221 17.4359 7.40132 17.0684 6.51413C16.7009 5.62693 16.1622 4.82081 15.4832 4.14178C14.8042 3.46275 13.9981 2.92412 13.1109 2.55663C12.2237 2.18914 11.2728 2 10.3125 2ZM10.3125 15.1625C9.15548 15.1625 8.02444 14.8194 7.06241 14.1766C6.10039 13.5338 5.35058 12.6201 4.9078 11.5512C4.46503 10.4823 4.34918 9.30601 4.57491 8.17122C4.80063 7.03643 5.35779 5.99406 6.17593 5.17593C6.99406 4.35779 8.03643 3.80063 9.17122 3.57491C10.306 3.34918 11.4823 3.46503 12.5512 3.9078C13.6201 4.35058 14.5338 5.10039 15.1766 6.06241C15.8194 7.02444 16.1625 8.15548 16.1625 9.3125C16.1625 10.864 15.5462 12.352 14.4491 13.4491C13.352 14.5462 11.864 15.1625 10.3125 15.1625Z" fill="#A4B4CB"/>
</svg>
