<svg width="19" height="18" viewBox="0 0 19 18" fill="none" xmlns="http://www.w3.org/2000/svg">
<path d="M15.6056 5.91754L11.2181 2.07117C10.8159 1.71143 10.2952 1.51254 9.75564 1.51254C9.21602 1.51254 8.69534 1.71143 8.29314 2.07117L3.90564 5.91754C3.67337 6.12527 3.48802 6.3801 3.36193 6.66506C3.23584 6.95002 3.17191 7.25857 3.17439 7.57017V13.9613C3.17439 14.5431 3.40551 15.1011 3.81692 15.5125C4.22833 15.9239 4.78632 16.155 5.36814 16.155H14.1431C14.725 16.155 15.2829 15.9239 15.6944 15.5125C16.1058 15.1011 16.3369 14.5431 16.3369 13.9613V7.56285C16.3383 7.25249 16.2739 6.94534 16.1478 6.66172C16.0218 6.3781 15.837 6.12445 15.6056 5.91754ZM11.2181 14.6925H8.29314V11.0363C8.29314 10.8424 8.37018 10.6564 8.50731 10.5192C8.64445 10.3821 8.83045 10.305 9.02439 10.305H10.4869C10.6808 10.305 10.8668 10.3821 11.004 10.5192C11.1411 10.6564 11.2181 10.8424 11.2181 11.0363V14.6925ZM14.8744 13.9613C14.8744 14.1552 14.7973 14.3412 14.6602 14.4784C14.5231 14.6155 14.3371 14.6925 14.1431 14.6925H12.6806V11.0363C12.6806 10.4545 12.4495 9.89648 12.0381 9.48508C11.6267 9.07367 11.0687 8.84254 10.4869 8.84254H9.02439C8.44257 8.84254 7.88458 9.07367 7.47317 9.48508C7.06176 9.89648 6.83064 10.4545 6.83064 11.0363V14.6925H5.36814C5.1742 14.6925 4.9882 14.6155 4.85106 14.4784C4.71393 14.3412 4.63689 14.1552 4.63689 13.9613V7.56285C4.63702 7.45903 4.65926 7.35642 4.70213 7.26186C4.74499 7.16729 4.80751 7.08294 4.88551 7.01442L9.27301 3.17536C9.40646 3.05812 9.57801 2.99347 9.75564 2.99347C9.93326 2.99347 10.1048 3.05812 10.2383 3.17536L14.6258 7.01442C14.7038 7.08294 14.7663 7.16729 14.8091 7.26186C14.852 7.35642 14.8743 7.45903 14.8744 7.56285V13.9613Z" fill="#C4C4C4"/>
</svg>
