<svg width="14" height="15" viewBox="0 0 14 15" fill="none" xmlns="http://www.w3.org/2000/svg">
<path d="M5.21397 4.64397H9.60147C9.79541 4.64397 9.9814 4.56693 10.1185 4.42979C10.2557 4.29266 10.3327 4.10666 10.3327 3.91272C10.3327 3.71878 10.2557 3.53278 10.1185 3.39565C9.9814 3.25851 9.79541 3.18147 9.60147 3.18147H5.21397C5.02003 3.18147 4.83403 3.25851 4.69689 3.39565C4.55976 3.53278 4.48272 3.71878 4.48272 3.91272C4.48272 4.10666 4.55976 4.29266 4.69689 4.42979C4.83403 4.56693 5.02003 4.64397 5.21397 4.64397ZM3.75147 7.56897H9.60147C9.79541 7.56897 9.9814 7.49193 10.1185 7.35479C10.2557 7.21766 10.3327 7.03166 10.3327 6.83772C10.3327 6.64378 10.2557 6.45778 10.1185 6.32065C9.9814 6.18351 9.79541 6.10647 9.60147 6.10647H3.75147C3.55753 6.10647 3.37153 6.18351 3.23439 6.32065C3.09726 6.45778 3.02022 6.64378 3.02022 6.83772C3.02022 7.03166 3.09726 7.21766 3.23439 7.35479C3.37153 7.49193 3.55753 7.56897 3.75147 7.56897ZM3.75147 10.494H9.60147C9.79541 10.494 9.9814 10.4169 10.1185 10.2798C10.2557 10.1427 10.3327 9.95666 10.3327 9.76272C10.3327 9.56878 10.2557 9.38278 10.1185 9.24565C9.9814 9.10851 9.79541 9.03147 9.60147 9.03147H3.75147C3.55753 9.03147 3.37153 9.10851 3.23439 9.24565C3.09726 9.38278 3.02022 9.56878 3.02022 9.76272C3.02022 9.95666 3.09726 10.1427 3.23439 10.2798C3.37153 10.4169 3.55753 10.494 3.75147 10.494ZM12.5265 0.25647H0.826465C0.632525 0.25647 0.446529 0.333512 0.309393 0.470648C0.172257 0.607784 0.0952148 0.79378 0.0952148 0.98772V14.1502C0.0952148 14.286 0.133031 14.4191 0.204426 14.5347C0.275822 14.6502 0.377975 14.7435 0.49944 14.8043C0.620905 14.865 0.756882 14.8907 0.892135 14.8785C1.02739 14.8663 1.15657 14.8167 1.26521 14.7352L2.7789 13.6018L4.28528 14.7352C4.41185 14.8302 4.56581 14.8815 4.72403 14.8815C4.88225 14.8815 5.0362 14.8302 5.16278 14.7352L6.67647 13.6018L8.19015 14.7352C8.31673 14.8302 8.47068 14.8815 8.6289 14.8815C8.78712 14.8815 8.94108 14.8302 9.06765 14.7352L10.574 13.6018L12.0877 14.7352C12.1969 14.8166 12.3266 14.8659 12.4622 14.8775C12.5979 14.8891 12.7341 14.8626 12.8555 14.801C12.9761 14.7403 13.0775 14.6473 13.1485 14.5324C13.2195 14.4175 13.2573 14.2853 13.2577 14.1502V0.98772C13.2577 0.79378 13.1807 0.607784 13.0435 0.470648C12.9064 0.333512 12.7204 0.25647 12.5265 0.25647ZM11.7952 12.6877L11.0128 12.1027C10.8862 12.0078 10.7322 11.9565 10.574 11.9565C10.4158 11.9565 10.2619 12.0078 10.1353 12.1027L8.6289 13.2362L7.11522 12.1027C6.98864 12.0078 6.83469 11.9565 6.67647 11.9565C6.51824 11.9565 6.36429 12.0078 6.23771 12.1027L4.72403 13.2362L3.21765 12.1027C3.09108 12.0078 2.93712 11.9565 2.7789 11.9565C2.62068 11.9565 2.46673 12.0078 2.34015 12.1027L1.55771 12.6877V1.71897H11.7952V12.6877Z" fill="#FCE37E"/>
</svg>
