<svg width="78" height="23" viewBox="0 0 78 23" fill="none" xmlns="http://www.w3.org/2000/svg">
<path d="M34.3536 15.6761C33.7842 15.6761 33.2694 15.5786 32.8092 15.3836C32.3568 15.1886 31.998 14.9078 31.7328 14.5412C31.4676 14.1746 31.3311 13.7417 31.3233 13.2425H33.0783C33.1017 13.5779 33.2187 13.8431 33.4293 14.0381C33.6477 14.2331 33.9441 14.3306 34.3185 14.3306C34.7007 14.3306 35.001 14.2409 35.2194 14.0615C35.4378 13.8743 35.547 13.6325 35.547 13.3361C35.547 13.0943 35.4729 12.8954 35.3247 12.7394C35.1765 12.5834 34.9893 12.4625 34.7631 12.3767C34.5447 12.2831 34.2405 12.1817 33.8505 12.0725C33.3201 11.9165 32.8872 11.7644 32.5518 11.6162C32.2242 11.4602 31.9395 11.2301 31.6977 10.9259C31.4637 10.6139 31.3467 10.2005 31.3467 9.68574C31.3467 9.20214 31.4676 8.78094 31.7094 8.42214C31.9512 8.06334 32.2905 7.79034 32.7273 7.60314C33.1641 7.40814 33.6633 7.31064 34.2249 7.31064C35.0673 7.31064 35.7498 7.51734 36.2724 7.93074C36.8028 8.33634 37.0953 8.90574 37.1499 9.63894H35.3481C35.3325 9.35814 35.2116 9.12804 34.9854 8.94864C34.767 8.76144 34.4745 8.66784 34.1079 8.66784C33.7881 8.66784 33.5307 8.74974 33.3357 8.91354C33.1485 9.07734 33.0549 9.31524 33.0549 9.62724C33.0549 9.84564 33.1251 10.0289 33.2655 10.1771C33.4137 10.3175 33.5931 10.4345 33.8037 10.5281C34.0221 10.6139 34.3263 10.7153 34.7163 10.8323C35.2467 10.9883 35.6796 11.1443 36.015 11.3003C36.3504 11.4563 36.639 11.6903 36.8808 12.0023C37.1226 12.3143 37.2435 12.7238 37.2435 13.2308C37.2435 13.6676 37.1304 14.0732 36.9042 14.4476C36.678 14.822 36.3465 15.1223 35.9097 15.3485C35.4729 15.5669 34.9542 15.6761 34.3536 15.6761ZM44.2211 7.42764V8.74974H42.0448V15.5942H40.4068V8.74974H38.2306V7.42764H44.2211ZM52.8373 11.4056C53.2975 11.4914 53.6758 11.7215 53.9722 12.0959C54.2686 12.4703 54.4168 12.8993 54.4168 13.3829C54.4168 13.8197 54.3076 14.2058 54.0892 14.5412C53.8786 14.8688 53.5705 15.1262 53.1649 15.3134C52.7593 15.5006 52.2796 15.5942 51.7258 15.5942H48.2041V7.42764H51.5737C52.1275 7.42764 52.6033 7.51734 53.0011 7.69674C53.4067 7.87614 53.7109 8.12574 53.9137 8.44554C54.1243 8.76534 54.2296 9.12804 54.2296 9.53364C54.2296 10.0094 54.1009 10.4072 53.8435 10.727C53.5939 11.0468 53.2585 11.273 52.8373 11.4056ZM49.8421 10.7972H51.3397C51.7297 10.7972 52.03 10.7114 52.2406 10.5398C52.4512 10.3604 52.5565 10.1069 52.5565 9.77934C52.5565 9.45174 52.4512 9.19824 52.2406 9.01884C52.03 8.83944 51.7297 8.74974 51.3397 8.74974H49.8421V10.7972ZM51.4918 14.2604C51.8896 14.2604 52.1977 14.1668 52.4161 13.9796C52.6423 13.7924 52.7554 13.5272 52.7554 13.184C52.7554 12.833 52.6384 12.56 52.4044 12.365C52.1704 12.1622 51.8545 12.0608 51.4567 12.0608H49.8421V14.2604H51.4918ZM55.301 12.3299C55.301 11.6747 55.4297 11.0936 55.6871 10.5866C55.9523 10.0796 56.3072 9.68964 56.7518 9.41664C57.2042 9.14364 57.7073 9.00714 58.2611 9.00714C58.7447 9.00714 59.1659 9.10464 59.5247 9.29964C59.8913 9.49464 60.1838 9.74034 60.4022 10.0367V9.11244H62.0519V15.5942H60.4022V14.6465C60.1916 14.9507 59.8991 15.2042 59.5247 15.407C59.1581 15.602 58.733 15.6995 58.2494 15.6995C57.7034 15.6995 57.2042 15.5591 56.7518 15.2783C56.3072 14.9975 55.9523 14.6036 55.6871 14.0966C55.4297 13.5818 55.301 12.9929 55.301 12.3299ZM60.4022 12.3533C60.4022 11.9555 60.3242 11.6162 60.1682 11.3354C60.0122 11.0468 59.8016 10.8284 59.5364 10.6802C59.2712 10.5242 58.9865 10.4462 58.6823 10.4462C58.3781 10.4462 58.0973 10.5203 57.8399 10.6685C57.5825 10.8167 57.3719 11.0351 57.2081 11.3237C57.0521 11.6045 56.9741 11.9399 56.9741 12.3299C56.9741 12.7199 57.0521 13.0631 57.2081 13.3595C57.3719 13.6481 57.5825 13.8704 57.8399 14.0264C58.1051 14.1824 58.3859 14.2604 58.6823 14.2604C58.9865 14.2604 59.2712 14.1863 59.5364 14.0381C59.8016 13.8821 60.0122 13.6637 60.1682 13.3829C60.3242 13.0943 60.4022 12.7511 60.4022 12.3533ZM67.2436 9.01884C68.0158 9.01884 68.6398 9.26454 69.1156 9.75594C69.5914 10.2395 69.8293 10.9181 69.8293 11.7917V15.5942H68.1913V12.014C68.1913 11.4992 68.0626 11.1053 67.8052 10.8323C67.5478 10.5515 67.1968 10.4111 66.7522 10.4111C66.2998 10.4111 65.941 10.5515 65.6758 10.8323C65.4184 11.1053 65.2897 11.4992 65.2897 12.014V15.5942H63.6517V9.11244H65.2897V9.91974C65.5081 9.63894 65.785 9.42054 66.1204 9.26454C66.4636 9.10074 66.838 9.01884 67.2436 9.01884ZM75.2246 15.5942L73.025 12.833V15.5942H71.387V6.93624H73.025V11.8619L75.2012 9.11244H77.3306L74.4758 12.365L77.354 15.5942H75.2246Z" fill="#2F2F32"/>
<path d="M6.46484 19.1118V13.95L10.9814 16.2083L15.4979 13.95V8.14306L20.0145 5.56201V16.5309L10.9814 21.6927L6.46484 19.1118Z" fill="#0177FD"/>
<path d="M10.9823 5.56216L6.46576 8.14304V13.95L1.94922 16.5309V5.56216L10.9823 0.400391L15.4989 2.98127V8.14304L10.9823 5.56216Z" fill="#0177FD"/>
</svg>
