<svg width="15" height="15" viewBox="0 0 15 15" fill="none" xmlns="http://www.w3.org/2000/svg">
<path fill-rule="evenodd" clip-rule="evenodd" d="M3.45371 9.76243C3.12305 9.76243 2.65586 9.80813 2.1695 9.87474C1.94228 9.90586 1.76902 10.0791 1.7379 10.3063C1.67129 10.7927 1.62559 11.2599 1.62559 11.5906C1.62559 11.9212 1.67129 12.3884 1.7379 12.8748C1.76902 13.102 1.94228 13.2752 2.1695 13.3064C2.65586 13.373 3.12305 13.4187 3.45371 13.4187C3.78437 13.4187 4.25156 13.373 4.73792 13.3064C4.96514 13.2752 5.1384 13.102 5.16952 12.8748C5.23613 12.3884 5.28184 11.9212 5.28184 11.5906C5.28184 11.2599 5.23613 10.7927 5.16952 10.3063C5.1384 10.0791 4.96514 9.90586 4.73792 9.87474C4.25156 9.80813 3.78437 9.76243 3.45371 9.76243ZM1.97105 8.42577C1.09363 8.54594 0.409095 9.23047 0.288928 10.1079C0.220005 10.6111 0.163086 11.1578 0.163086 11.5906C0.163086 12.0233 0.220005 12.57 0.288928 13.0732C0.409095 13.9506 1.09363 14.6352 1.97105 14.7553C2.47431 14.8243 3.02093 14.8812 3.45371 14.8812C3.88649 14.8812 4.43311 14.8243 4.93637 14.7553C5.8138 14.6352 6.49833 13.9506 6.61849 13.0732C6.68742 12.57 6.74434 12.0233 6.74434 11.5906C6.74434 11.1578 6.68742 10.6111 6.61849 10.1079C6.49833 9.23047 5.8138 8.54594 4.93637 8.42577C4.43311 8.35685 3.88649 8.29993 3.45371 8.29993C3.02093 8.29993 2.47431 8.35685 1.97105 8.42577Z" fill="#436CFB"/>
<path fill-rule="evenodd" clip-rule="evenodd" d="M11.4977 1.71873C11.167 1.71873 10.6998 1.76443 10.2134 1.83104C9.98622 1.86216 9.81297 2.03542 9.78185 2.26264C9.71524 2.749 9.66953 3.21619 9.66953 3.54685C9.66953 3.87751 9.71524 4.3447 9.78185 4.83106C9.81297 5.05828 9.98622 5.23154 10.2134 5.26266C10.6998 5.32927 11.167 5.37498 11.4977 5.37498C11.8283 5.37498 12.2955 5.32927 12.7819 5.26266C13.0091 5.23154 13.1823 5.05828 13.2135 4.83106C13.2801 4.3447 13.3258 3.87751 13.3258 3.54685C13.3258 3.21619 13.2801 2.749 13.2135 2.26264C13.1823 2.03542 13.0091 1.86216 12.7819 1.83104C12.2955 1.76443 11.8283 1.71873 11.4977 1.71873ZM10.015 0.382068C9.13757 0.502235 8.45304 1.18677 8.33287 2.06419C8.26395 2.56745 8.20703 3.11407 8.20703 3.54685C8.20703 3.97963 8.26395 4.52625 8.33287 5.02951C8.45304 5.90694 9.13757 6.59147 10.015 6.71163C10.5183 6.78056 11.0649 6.83748 11.4977 6.83748C11.9304 6.83748 12.4771 6.78056 12.9803 6.71163C13.8577 6.59147 14.5423 5.90694 14.6624 5.02951C14.7314 4.52625 14.7883 3.97963 14.7883 3.54685C14.7883 3.11407 14.7314 2.56745 14.6624 2.06419C14.5423 1.18677 13.8577 0.502235 12.9803 0.382068C12.4771 0.313145 11.9304 0.256226 11.4977 0.256226C11.0649 0.256226 10.5183 0.313145 10.015 0.382068Z" fill="#436CFB"/>
<path fill-rule="evenodd" clip-rule="evenodd" d="M3.45371 1.71873C3.12305 1.71873 2.65586 1.76443 2.1695 1.83104C1.94228 1.86216 1.76902 2.03542 1.7379 2.26264C1.67129 2.749 1.62559 3.21619 1.62559 3.54685C1.62559 3.87751 1.67129 4.3447 1.7379 4.83106C1.76902 5.05828 1.94228 5.23154 2.1695 5.26266C2.65586 5.32927 3.12305 5.37498 3.45371 5.37498C3.78437 5.37498 4.25156 5.32927 4.73792 5.26266C4.96514 5.23154 5.1384 5.05828 5.16952 4.83106C5.23613 4.3447 5.28184 3.87751 5.28184 3.54685C5.28184 3.21619 5.23613 2.749 5.16952 2.26264C5.1384 2.03542 4.96514 1.86216 4.73792 1.83104C4.25156 1.76443 3.78437 1.71873 3.45371 1.71873ZM1.97105 0.382068C1.09363 0.502235 0.409095 1.18677 0.288928 2.06419C0.220005 2.56745 0.163086 3.11407 0.163086 3.54685C0.163086 3.97963 0.220005 4.52625 0.288928 5.02951C0.409095 5.90694 1.09363 6.59147 1.97105 6.71163C2.47431 6.78056 3.02093 6.83748 3.45371 6.83748C3.88649 6.83748 4.43311 6.78056 4.93637 6.71163C5.8138 6.59147 6.49833 5.90694 6.61849 5.02951C6.68742 4.52625 6.74434 3.97963 6.74434 3.54685C6.74434 3.11407 6.68742 2.56745 6.61849 2.06419C6.49833 1.18677 5.8138 0.502235 4.93637 0.382068C4.43311 0.313145 3.88649 0.256226 3.45371 0.256226C3.02093 0.256226 2.47431 0.313145 1.97105 0.382068Z" fill="#436CFB"/>
<path fill-rule="evenodd" clip-rule="evenodd" d="M12.3493 9.76279C12.3493 9.4599 12.1038 9.21436 11.8009 9.21436C11.498 9.21436 11.2524 9.4599 11.2524 9.76279V11.3467H9.66855C9.36566 11.3467 9.12012 11.5922 9.12012 11.8951C9.12012 12.198 9.36566 12.4436 9.66855 12.4436H11.2524V14.0284C11.2524 14.3313 11.498 14.5769 11.8009 14.5769C12.1038 14.5769 12.3493 14.3313 12.3493 14.0284V12.4436H13.9342C14.2371 12.4436 14.4826 12.198 14.4826 11.8951C14.4826 11.5922 14.2371 11.3467 13.9342 11.3467H12.3493V9.76279Z" fill="#436CFB"/>
</svg>
