<svg width="48" height="48" viewBox="0 0 48 48" fill="none" xmlns="http://www.w3.org/2000/svg">
<circle cx="24" cy="24" r="24" fill="#018ECB"/>
<path d="M31.41 25C31.19 25 30.96 24.93 30.74 24.88C30.2948 24.7805 29.8571 24.6501 29.43 24.49C28.9661 24.3212 28.4561 24.33 27.9983 24.5146C27.5405 24.6992 27.1671 25.0466 26.95 25.49L26.73 25.95C25.7588 25.3992 24.8616 24.7271 24.06 23.95C23.2828 23.1484 22.6108 22.2512 22.06 21.28L22.52 21.07C22.9634 20.8529 23.3108 20.4795 23.4954 20.0217C23.68 19.5639 23.6888 19.0539 23.52 18.59C23.3612 18.159 23.2309 17.7181 23.13 17.27C23.08 17.05 23.04 16.82 23.01 16.6C22.8886 15.8956 22.5196 15.2577 21.9696 14.8012C21.4196 14.3447 20.7247 14.0996 20.01 14.11H17C16.5772 14.1094 16.1591 14.1982 15.7731 14.3706C15.3871 14.5429 15.0418 14.7949 14.76 15.11C14.4723 15.4337 14.2581 15.8158 14.1321 16.23C14.0061 16.6443 13.9712 17.081 14.03 17.51C14.5736 21.6721 16.4752 25.5387 19.44 28.51C22.4113 31.4748 26.2779 33.3764 30.44 33.92C30.5698 33.9299 30.7002 33.9299 30.83 33.92C31.5674 33.9211 32.2794 33.6505 32.83 33.16C33.1451 32.8782 33.3971 32.5329 33.5694 32.1469C33.7417 31.7609 33.8305 31.3428 33.83 30.92V27.92C33.8246 27.229 33.5808 26.5611 33.1399 26.0291C32.699 25.4971 32.0879 25.1336 31.41 25ZM31.9 31C31.8997 31.1395 31.8701 31.2775 31.8133 31.4049C31.7565 31.5324 31.6736 31.6465 31.57 31.74C31.4604 31.8399 31.33 31.9141 31.1881 31.9573C31.0463 32.0006 30.8967 32.0117 30.75 31.99C27.0183 31.5026 23.5502 29.802 20.88 27.15C18.2075 24.4775 16.492 20.9974 16 17.25C15.9783 17.1033 15.9894 16.9537 16.0327 16.8119C16.0759 16.67 16.1501 16.5396 16.25 16.43C16.3446 16.3252 16.4604 16.2415 16.5896 16.1847C16.7189 16.1278 16.8588 16.0989 17 16.1H20C20.2312 16.0944 20.4571 16.169 20.6395 16.3112C20.8218 16.4534 20.9492 16.6544 21 16.88C21 17.15 21.09 17.43 21.15 17.7C21.2656 18.2239 21.4193 18.7386 21.61 19.24L20.21 19.9C19.9694 20.0105 19.7823 20.2119 19.69 20.46C19.59 20.7035 19.59 20.9765 19.69 21.22C21.1292 24.3028 23.6072 26.7808 26.69 28.22C26.9334 28.32 27.2065 28.32 27.45 28.22C27.6981 28.1276 27.8995 27.9406 28.01 27.7L28.64 26.3C29.1559 26.4881 29.6837 26.6418 30.22 26.76C30.48 26.82 30.76 26.87 31.03 26.91C31.2556 26.9608 31.4566 27.0882 31.5988 27.2705C31.741 27.4529 31.8156 27.6788 31.81 27.91L31.9 31ZM26 14C25.77 14 25.53 14 25.3 14C25.0348 14.0225 24.7894 14.1495 24.6178 14.353C24.4462 14.5565 24.3624 14.8198 24.385 15.085C24.4075 15.3502 24.5345 15.5956 24.738 15.7672C24.9415 15.9388 25.2048 16.0225 25.47 16H26C27.5913 16 29.1174 16.6321 30.2426 17.7574C31.3678 18.8826 32 20.4087 32 22C32 22.18 32 22.35 32 22.53C31.9778 22.7938 32.0612 23.0556 32.2317 23.2581C32.4023 23.4606 32.6462 23.5871 32.91 23.61H32.99C33.2403 23.611 33.4819 23.5181 33.6671 23.3496C33.8522 23.1811 33.9675 22.9493 33.99 22.7C33.99 22.47 33.99 22.23 33.99 22C33.99 19.88 33.1485 17.8467 31.6504 16.3467C30.1523 14.8467 28.12 14.0027 26 14ZM28 22C28 22.2652 28.1053 22.5196 28.2929 22.7071C28.4804 22.8946 28.7348 23 29 23C29.2652 23 29.5196 22.8946 29.7071 22.7071C29.8946 22.5196 30 22.2652 30 22C30 20.9391 29.5786 19.9217 28.8284 19.1716C28.0783 18.4214 27.0609 18 26 18C25.7348 18 25.4804 18.1054 25.2929 18.2929C25.1053 18.4804 25 18.7348 25 19C25 19.2652 25.1053 19.5196 25.2929 19.7071C25.4804 19.8946 25.7348 20 26 20C26.5304 20 27.0391 20.2107 27.4142 20.5858C27.7893 20.9609 28 21.4696 28 22Z" fill="white"/>
</svg>
