<svg width="17" height="15" viewBox="0 0 17 15" fill="none" xmlns="http://www.w3.org/2000/svg">
<path d="M7.74868 3.17795L8.14355 2.74651V5.3717C8.14355 5.56563 8.2206 5.75163 8.35773 5.88877C8.49487 6.0259 8.68086 6.10294 8.8748 6.10294C9.06874 6.10294 9.25474 6.0259 9.39188 5.88877C9.52901 5.75163 9.60605 5.56563 9.60605 5.3717V2.74651L10.0009 3.1487C10.0673 3.22366 10.1484 3.2842 10.2391 3.32656C10.3298 3.36891 10.4283 3.39218 10.5284 3.39493C10.6285 3.39767 10.7281 3.37983 10.821 3.3425C10.9139 3.30518 10.9982 3.24917 11.0686 3.17795C11.1371 3.10997 11.1915 3.02909 11.2286 2.93998C11.2657 2.85087 11.2849 2.75529 11.2849 2.65876C11.2849 2.56222 11.2657 2.46665 11.2286 2.37754C11.1915 2.28843 11.1371 2.20755 11.0686 2.13957L9.39399 0.465008C9.32445 0.398434 9.24244 0.346249 9.15268 0.311445C8.97465 0.238307 8.77496 0.238307 8.59693 0.311445C8.50717 0.346249 8.42516 0.398434 8.35562 0.465008L6.68105 2.11032C6.53948 2.2519 6.45994 2.44391 6.45994 2.64413C6.45994 2.84435 6.53948 3.03637 6.68105 3.17795C6.82263 3.31952 7.01465 3.39906 7.21487 3.39906C7.41509 3.39906 7.6071 3.31952 7.74868 3.17795ZM8.8748 7.56544C8.44092 7.56544 8.01678 7.69411 7.65602 7.93516C7.29526 8.17621 7.01408 8.51883 6.84804 8.91968C6.682 9.32054 6.63856 9.76163 6.72321 10.1872C6.80785 10.6127 7.01679 11.0036 7.32359 11.3104C7.63039 11.6172 8.02128 11.8261 8.44683 11.9108C8.87237 11.9954 9.31346 11.952 9.71432 11.786C10.1152 11.6199 10.4578 11.3387 10.6988 10.978C10.9399 10.6172 11.0686 10.1931 11.0686 9.75919C11.0686 9.17738 10.8374 8.61939 10.426 8.20798C10.0146 7.79657 9.45662 7.56544 8.8748 7.56544ZM8.8748 10.4904C8.73018 10.4904 8.5888 10.4476 8.46854 10.3672C8.34829 10.2869 8.25456 10.1727 8.19922 10.039C8.14387 9.90541 8.12939 9.75838 8.15761 9.61653C8.18582 9.47469 8.25547 9.34439 8.35773 9.24212C8.46 9.13986 8.5903 9.07021 8.73214 9.042C8.87399 9.01378 9.02102 9.02826 9.15464 9.08361C9.28826 9.13895 9.40247 9.23268 9.48282 9.35293C9.56317 9.47319 9.60605 9.61457 9.60605 9.75919C9.60605 9.95313 9.52901 10.1391 9.39188 10.2763C9.25474 10.4134 9.06874 10.4904 8.8748 10.4904ZM3.75605 9.75919C3.75605 9.90382 3.79894 10.0452 3.87929 10.1655C3.95964 10.2857 4.07385 10.3794 4.20747 10.4348C4.34109 10.4901 4.48812 10.5046 4.62996 10.4764C4.77181 10.4482 4.90211 10.3785 5.00438 10.2763C5.10664 10.174 5.17629 10.0437 5.2045 9.90185C5.23272 9.76 5.21824 9.61298 5.16289 9.47936C5.10754 9.34574 5.01382 9.23153 4.89357 9.15118C4.77331 9.07083 4.63193 9.02794 4.4873 9.02794C4.29337 9.02794 4.10737 9.10499 3.97023 9.24212C3.8331 9.37926 3.75605 9.56526 3.75605 9.75919ZM13.9936 9.75919C13.9936 9.61457 13.9507 9.47319 13.8703 9.35293C13.79 9.23268 13.6758 9.13895 13.5421 9.08361C13.4085 9.02826 13.2615 9.01378 13.1196 9.042C12.9778 9.07021 12.8475 9.13986 12.7452 9.24212C12.643 9.34439 12.5733 9.47469 12.5451 9.61653C12.5169 9.75838 12.5314 9.90541 12.5867 10.039C12.6421 10.1727 12.7358 10.2869 12.856 10.3672C12.9763 10.4476 13.1177 10.4904 13.2623 10.4904C13.4562 10.4904 13.6422 10.4134 13.7794 10.2763C13.9165 10.1391 13.9936 9.95313 13.9936 9.75919ZM14.7248 4.64045H11.7998C11.6059 4.64045 11.4199 4.71749 11.2827 4.85462C11.1456 4.99176 11.0686 5.17776 11.0686 5.3717C11.0686 5.56563 11.1456 5.75163 11.2827 5.88877C11.4199 6.0259 11.6059 6.10294 11.7998 6.10294H14.7248C14.9187 6.10294 15.1047 6.17999 15.2419 6.31712C15.379 6.45426 15.4561 6.64025 15.4561 6.83419V12.6842C15.4561 12.8781 15.379 13.0641 15.2419 13.2013C15.1047 13.3384 14.9187 13.4154 14.7248 13.4154H3.0248C2.83087 13.4154 2.64487 13.3384 2.50773 13.2013C2.3706 13.0641 2.29355 12.8781 2.29355 12.6842V6.83419C2.29355 6.64025 2.3706 6.45426 2.50773 6.31712C2.64487 6.17999 2.83087 6.10294 3.0248 6.10294H5.9498C6.14374 6.10294 6.32974 6.0259 6.46688 5.88877C6.60401 5.75163 6.68105 5.56563 6.68105 5.3717C6.68105 5.17776 6.60401 4.99176 6.46688 4.85462C6.32974 4.71749 6.14374 4.64045 5.9498 4.64045H3.0248C2.44299 4.64045 1.885 4.87157 1.47359 5.28298C1.06218 5.69439 0.831055 6.25238 0.831055 6.83419V12.6842C0.831055 13.266 1.06218 13.824 1.47359 14.2354C1.885 14.6468 2.44299 14.8779 3.0248 14.8779H14.7248C15.3066 14.8779 15.8646 14.6468 16.276 14.2354C16.6874 13.824 16.9186 13.266 16.9186 12.6842V6.83419C16.9186 6.25238 16.6874 5.69439 16.276 5.28298C15.8646 4.87157 15.3066 4.64045 14.7248 4.64045Z" fill="#83DEA4"/>
</svg>
