<svg width="18" height="19" viewBox="0 0 18 19" fill="none" xmlns="http://www.w3.org/2000/svg">
<path fill-rule="evenodd" clip-rule="evenodd" d="M11.051 12.7967C10.0604 13.5668 8.81564 14.0253 7.46377 14.0253C4.2329 14.0253 1.61377 11.4062 1.61377 8.17532C1.61377 4.94445 4.2329 2.32532 7.46377 2.32532C10.6946 2.32532 13.3138 4.94445 13.3138 8.17532C13.3138 9.52719 12.8552 10.772 12.0852 11.7626L16.0246 15.702C16.3102 15.9876 16.3102 16.4506 16.0246 16.7361C15.739 17.0217 15.276 17.0217 14.9904 16.7361L11.051 12.7967ZM11.8513 8.17532C11.8513 10.5985 9.88692 12.5628 7.46377 12.5628C5.04062 12.5628 3.07627 10.5985 3.07627 8.17532C3.07627 5.75217 5.04062 3.78782 7.46377 3.78782C9.88692 3.78782 11.8513 5.75217 11.8513 8.17532Z" fill="#C1C1C1"/>
</svg>
