<svg width="17" height="15" viewBox="0 0 17 15" fill="none" xmlns="http://www.w3.org/2000/svg">
<path d="M6.94936 3.17795L7.34424 2.74651V5.3717C7.34424 5.56563 7.42128 5.75163 7.55842 5.88877C7.69555 6.0259 7.88155 6.10294 8.07549 6.10294C8.26943 6.10294 8.45542 6.0259 8.59256 5.88877C8.7297 5.75163 8.80674 5.56563 8.80674 5.3717V2.74651L9.20161 3.1487C9.26799 3.22366 9.34906 3.2842 9.43979 3.32656C9.53052 3.36891 9.62899 3.39218 9.72908 3.39493C9.82917 3.39767 9.92877 3.37983 10.0217 3.3425C10.1146 3.30518 10.1989 3.24917 10.2692 3.17795C10.3378 3.10997 10.3922 3.02909 10.4293 2.93998C10.4664 2.85087 10.4855 2.75529 10.4855 2.65876C10.4855 2.56222 10.4664 2.46665 10.4293 2.37754C10.3922 2.28843 10.3378 2.20755 10.2692 2.13957L8.59468 0.465008C8.52513 0.398434 8.44312 0.346249 8.35336 0.311445C8.17533 0.238307 7.97564 0.238307 7.79761 0.311445C7.70785 0.346249 7.62585 0.398434 7.5563 0.465008L5.88174 2.11032C5.74016 2.2519 5.66063 2.44391 5.66063 2.64413C5.66063 2.84435 5.74016 3.03637 5.88174 3.17795C6.02331 3.31952 6.21533 3.39906 6.41555 3.39906C6.61577 3.39906 6.80779 3.31952 6.94936 3.17795ZM8.07549 7.56544C7.64161 7.56544 7.21747 7.69411 6.85671 7.93516C6.49595 8.17621 6.21477 8.51883 6.04873 8.91968C5.88269 9.32054 5.83924 9.76163 5.92389 10.1872C6.00854 10.6127 6.21747 11.0036 6.52427 11.3104C6.83107 11.6172 7.22196 11.8261 7.64751 11.9108C8.07305 11.9954 8.51414 11.952 8.915 11.786C9.31586 11.6199 9.65847 11.3387 9.89952 10.978C10.1406 10.6172 10.2692 10.1931 10.2692 9.75919C10.2692 9.17738 10.0381 8.61939 9.6267 8.20798C9.2153 7.79657 8.65731 7.56544 8.07549 7.56544ZM8.07549 10.4904C7.93086 10.4904 7.78948 10.4476 7.66923 10.3672C7.54897 10.2869 7.45525 10.1727 7.3999 10.039C7.34455 9.90541 7.33007 9.75838 7.35829 9.61653C7.3865 9.47469 7.45615 9.34439 7.55842 9.24212C7.66068 9.13986 7.79098 9.07021 7.93283 9.042C8.07468 9.01378 8.22171 9.02826 8.35533 9.08361C8.48894 9.13895 8.60315 9.23268 8.6835 9.35293C8.76385 9.47319 8.80674 9.61457 8.80674 9.75919C8.80674 9.95313 8.7297 10.1391 8.59256 10.2763C8.45542 10.4134 8.26943 10.4904 8.07549 10.4904ZM2.95674 9.75919C2.95674 9.90382 2.99963 10.0452 3.07998 10.1655C3.16033 10.2857 3.27453 10.3794 3.40815 10.4348C3.54177 10.4901 3.6888 10.5046 3.83065 10.4764C3.9725 10.4482 4.10279 10.3785 4.20506 10.2763C4.30733 10.174 4.37697 10.0437 4.40519 9.90185C4.4334 9.76 4.41892 9.61298 4.36357 9.47936C4.30823 9.34574 4.2145 9.23153 4.09425 9.15118C3.974 9.07083 3.83262 9.02794 3.68799 9.02794C3.49405 9.02794 3.30805 9.10499 3.17092 9.24212C3.03378 9.37926 2.95674 9.56526 2.95674 9.75919ZM13.1942 9.75919C13.1942 9.61457 13.1514 9.47319 13.071 9.35293C12.9907 9.23268 12.8764 9.13895 12.7428 9.08361C12.6092 9.02826 12.4622 9.01378 12.3203 9.042C12.1785 9.07021 12.0482 9.13986 11.9459 9.24212C11.8436 9.34439 11.774 9.47469 11.7458 9.61653C11.7176 9.75838 11.7321 9.90541 11.7874 10.039C11.8427 10.1727 11.9365 10.2869 12.0567 10.3672C12.177 10.4476 12.3184 10.4904 12.463 10.4904C12.6569 10.4904 12.8429 10.4134 12.9801 10.2763C13.1172 10.1391 13.1942 9.95313 13.1942 9.75919ZM13.9255 4.64045H11.0005C10.8065 4.64045 10.6206 4.71749 10.4834 4.85462C10.3463 4.99176 10.2692 5.17776 10.2692 5.3717C10.2692 5.56563 10.3463 5.75163 10.4834 5.88877C10.6206 6.0259 10.8065 6.10294 11.0005 6.10294H13.9255C14.1194 6.10294 14.3054 6.17999 14.4426 6.31712C14.5797 6.45426 14.6567 6.64025 14.6567 6.83419V12.6842C14.6567 12.8781 14.5797 13.0641 14.4426 13.2013C14.3054 13.3384 14.1194 13.4154 13.9255 13.4154H2.22549C2.03155 13.4154 1.84555 13.3384 1.70842 13.2013C1.57128 13.0641 1.49424 12.8781 1.49424 12.6842V6.83419C1.49424 6.64025 1.57128 6.45426 1.70842 6.31712C1.84555 6.17999 2.03155 6.10294 2.22549 6.10294H5.15049C5.34443 6.10294 5.53042 6.0259 5.66756 5.88877C5.8047 5.75163 5.88174 5.56563 5.88174 5.3717C5.88174 5.17776 5.8047 4.99176 5.66756 4.85462C5.53042 4.71749 5.34443 4.64045 5.15049 4.64045H2.22549C1.64367 4.64045 1.08568 4.87157 0.674273 5.28298C0.262865 5.69439 0.0317383 6.25238 0.0317383 6.83419V12.6842C0.0317383 13.266 0.262865 13.824 0.674273 14.2354C1.08568 14.6468 1.64367 14.8779 2.22549 14.8779H13.9255C14.5073 14.8779 15.0653 14.6468 15.4767 14.2354C15.8881 13.824 16.1192 13.266 16.1192 12.6842V6.83419C16.1192 6.25238 15.8881 5.69439 15.4767 5.28298C15.0653 4.87157 14.5073 4.64045 13.9255 4.64045Z" fill="#A789FF"/>
</svg>
