<svg width="20" height="20" viewBox="0 0 20 20" fill="none" xmlns="http://www.w3.org/2000/svg">
<ellipse opacity="0.1" cx="10.372" cy="10" rx="9.45736" ry="10" fill="#9664FF"/>
<path fill-rule="evenodd" clip-rule="evenodd" d="M10.165 6.86575C10.204 6.71208 10.2991 6.58106 10.4294 6.50151C10.5597 6.42196 10.7146 6.4004 10.8599 6.44155L13.9605 7.32001C14.1058 7.36121 14.2297 7.46176 14.3049 7.59954C14.3802 7.73733 14.4006 7.90106 14.3617 8.05475L13.5309 11.3332C13.4899 11.4844 13.3943 11.6126 13.2648 11.6901C13.1353 11.7675 12.9822 11.7881 12.8385 11.7474C12.6948 11.7067 12.572 11.6079 12.4965 11.4724C12.4209 11.3368 12.3988 11.1753 12.4348 11.0227L12.9111 9.14329L7.21749 12.6191C7.08716 12.6987 6.93227 12.7202 6.7869 12.679C6.64153 12.6378 6.5176 12.5373 6.44235 12.3995C6.3671 12.2617 6.34671 12.0979 6.38566 11.9442C6.42461 11.7905 6.51971 11.6594 6.65005 11.5799L12.3436 8.10406L10.5662 7.60049C10.4209 7.55928 10.297 7.45874 10.2218 7.32095C10.1465 7.18317 10.1261 7.01943 10.165 6.86575Z" fill="#9664FF"/>
</svg>
