<svg width="20" height="20" viewBox="0 0 20 20" fill="none" xmlns="http://www.w3.org/2000/svg">
<ellipse opacity="0.1" cx="9.93795" cy="10" rx="9.45736" ry="10" fill="#F82E2E"/>
<path fill-rule="evenodd" clip-rule="evenodd" d="M12.9321 9.05931C13.0907 9.06105 13.2404 9.12268 13.3483 9.23063C13.4563 9.33859 13.5136 9.48403 13.5078 9.63497L13.3829 12.8552C13.377 13.0061 13.3084 13.1502 13.1922 13.2557C13.0759 13.3612 12.9216 13.4195 12.763 13.4178L9.38115 13.381C9.22452 13.3767 9.07749 13.314 8.97175 13.2064C8.866 13.0987 8.80999 12.9548 8.81578 12.8055C8.82157 12.6562 8.8887 12.5136 9.00271 12.4083C9.11671 12.3031 9.26848 12.2436 9.42531 12.2427L11.364 12.2638L6.64709 7.54691C6.53912 7.43893 6.48175 7.29345 6.48761 7.14248C6.49346 6.9915 6.56207 6.8474 6.67833 6.74186C6.79458 6.63632 6.94897 6.578 7.10753 6.57973C7.26609 6.58145 7.41582 6.64308 7.5238 6.75106L12.2407 11.4679L12.3123 9.62197C12.3182 9.47103 12.3868 9.32696 12.503 9.22144C12.6193 9.11593 12.7736 9.05761 12.9321 9.05931Z" fill="#F82E2E"/>
</svg>
