<svg width="19" height="19" viewBox="0 0 19 19" fill="none" xmlns="http://www.w3.org/2000/svg">
<path d="M5.82812 11.1372H8.02187C8.21581 11.1372 8.40181 11.0602 8.53895 10.923C8.67608 10.7859 8.75312 10.5999 8.75312 10.406C8.75312 10.212 8.67608 10.026 8.53895 9.88889C8.40181 9.75175 8.21581 9.67471 8.02187 9.67471H5.82812C5.63419 9.67471 5.44819 9.75175 5.31105 9.88889C5.17392 10.026 5.09687 10.212 5.09687 10.406C5.09687 10.5999 5.17392 10.7859 5.31105 10.923C5.44819 11.0602 5.63419 11.1372 5.82812 11.1372ZM14.6031 3.82471H4.36562C3.78381 3.82471 3.22582 4.05583 2.81441 4.46724C2.403 4.87865 2.17188 5.43664 2.17188 6.01846V12.5997C2.17188 13.1815 2.403 13.7395 2.81441 14.1509C3.22582 14.5623 3.78381 14.7935 4.36562 14.7935H14.6031C15.1849 14.7935 15.7429 14.5623 16.1543 14.1509C16.5657 13.7395 16.7969 13.1815 16.7969 12.5997V6.01846C16.7969 5.43664 16.5657 4.87865 16.1543 4.46724C15.7429 4.05583 15.1849 3.82471 14.6031 3.82471ZM15.3344 12.5997C15.3344 12.7936 15.2573 12.9796 15.1202 13.1168C14.9831 13.2539 14.7971 13.331 14.6031 13.331H4.36562C4.17169 13.331 3.98569 13.2539 3.84855 13.1168C3.71142 12.9796 3.63437 12.7936 3.63437 12.5997V8.21221H15.3344V12.5997ZM15.3344 6.74971H3.63437V6.01846C3.63437 5.82452 3.71142 5.63852 3.84855 5.50139C3.98569 5.36425 4.17169 5.28721 4.36562 5.28721H14.6031C14.7971 5.28721 14.9831 5.36425 15.1202 5.50139C15.2573 5.63852 15.3344 5.82452 15.3344 6.01846V6.74971Z" fill="#A4B4CB"/>
</svg>
